<svg width="24" height="24" viewBox="0 0 24 24" fill="none" xmlns="http://www.w3.org/2000/svg">
<g clip-path="url(#clip0_37_1741)">
<path d="M24 17.7209V6.27907C24 2.81124 21.1888 0 17.7209 0L6.27907 0C2.81124 0 0 2.81124 0 6.27907V17.7209C0 21.1888 2.81124 24 6.27907 24H17.7209C21.1888 24 24 21.1888 24 17.7209Z" fill="url(#paint0_radial_37_1741)"/>
<path d="M6.96866 9.7676H9.29151V17.2368H6.96866V9.7676ZM8.13419 6.05762C8.88111 6.05762 9.48029 6.6568 9.48029 7.40372C9.48029 8.15064 8.88111 8.74982 8.13419 8.74982C7.38726 8.74982 6.78809 8.14243 6.78809 7.40372C6.78809 6.665 7.38726 6.05762 8.13419 6.05762Z" fill="white"/>
<path d="M10.7523 9.7674H12.9767V10.7852H13.0095C13.3214 10.1942 14.0766 9.57861 15.2093 9.57861C17.5567 9.57861 17.9917 11.1217 17.9917 13.1326V17.2284H15.6689V13.6005C15.6689 12.7305 15.6525 11.6224 14.4623 11.6224C13.2722 11.6224 13.067 12.5663 13.067 13.543V17.2366H10.7441V9.7674H10.7523Z" fill="white"/>
</g>
<defs>
<radialGradient id="paint0_radial_37_1741" cx="0" cy="0" r="1" gradientUnits="userSpaceOnUse" gradientTransform="translate(23.4098 12) rotate(180) scale(23.4098 12.2194)">
<stop stop-color="#EDD3A0"/>
<stop offset="1" stop-color="#4C3F29"/>
</radialGradient>
<clipPath id="clip0_37_1741">
<rect width="24" height="24" fill="white"/>
</clipPath>
</defs>
</svg>
