<svg width="26" height="26" viewBox="0 0 26 26" fill="none" xmlns="http://www.w3.org/2000/svg">
<path d="M18.4174 1.30884L19.8461 3.98774L22.525 5.41648L19.8461 6.84522L18.4174 9.52412L16.9886 6.84522L14.3098 5.41648L16.9886 3.98774L18.4174 1.30884ZM8.66737 4.69425L11.5562 10.1109L16.9729 12.9998L11.5562 15.8887L8.66737 21.3054L5.77848 15.8887L0.361816 12.9998L5.77848 10.1109L8.66737 4.69425ZM21.3062 17.6943L19.5008 14.3089L17.6952 17.6943L14.3098 19.4998L17.6952 21.3054L19.5008 24.6908L21.3062 21.3054L24.6917 19.4998L21.3062 17.6943Z" fill="white"/>
<path d="M18.4174 1.30884L19.8461 3.98774L22.525 5.41648L19.8461 6.84522L18.4174 9.52412L16.9886 6.84522L14.3098 5.41648L16.9886 3.98774L18.4174 1.30884ZM8.66737 4.69425L11.5562 10.1109L16.9729 12.9998L11.5562 15.8887L8.66737 21.3054L5.77848 15.8887L0.361816 12.9998L5.77848 10.1109L8.66737 4.69425ZM21.3062 17.6943L19.5008 14.3089L17.6952 17.6943L14.3098 19.4998L17.6952 21.3054L19.5008 24.6908L21.3062 21.3054L24.6917 19.4998L21.3062 17.6943Z" fill="url(#paint0_radial_20_938)"/>
<defs>
<radialGradient id="paint0_radial_20_938" cx="0" cy="0" r="1" gradientUnits="userSpaceOnUse" gradientTransform="translate(12.5267 1.8838) rotate(90) scale(22.807 12.3873)">
<stop stop-color="#EDD3A0"/>
<stop offset="1" stop-color="#EDD3A0"/>
</radialGradient>
</defs>
</svg>
