<svg width="143" height="40" viewBox="0 0 143 40" fill="none" xmlns="http://www.w3.org/2000/svg">
<path fill-rule="evenodd" clip-rule="evenodd" d="M19.2425 38.3334C29.3677 38.3334 37.5758 30.1253 37.5758 20.0001C37.5758 9.87487 29.3677 1.66675 19.2425 1.66675C9.11727 1.66675 0.90918 9.87487 0.90918 20.0001C0.90918 30.1253 9.11727 38.3334 19.2425 38.3334ZM24.9619 10.2072C25.2403 9.2183 24.2806 8.63354 23.4042 9.25794L11.1695 17.9739C10.219 18.651 10.3685 20.0001 11.3941 20.0001H14.6158V19.9751H20.8948L15.7786 21.7803L13.5232 29.793C13.2448 30.7819 14.2043 31.3667 15.0809 30.7422L27.3155 22.0264C28.266 21.3492 28.1164 20.0001 27.0909 20.0001H22.2053L24.9619 10.2072Z" fill="#313131"/>
<path d="M47.0591 28.2577V25.3577H49.3591V13.6577H47.0591V10.7577H56.0591C57.1257 10.7577 58.0507 10.941 58.8341 11.3077C59.6341 11.6577 60.2507 12.166 60.6841 12.8327C61.1341 13.4827 61.3591 14.266 61.3591 15.1827V15.4327C61.3591 16.2327 61.2091 16.891 60.9091 17.4077C60.6091 17.9077 60.2507 18.2994 59.8341 18.5827C59.4341 18.8494 59.0507 19.041 58.6841 19.1577V19.6077C59.0507 19.7077 59.4507 19.8994 59.8841 20.1827C60.3174 20.4494 60.6841 20.841 60.9841 21.3577C61.3007 21.8744 61.4591 22.5494 61.4591 23.3827V23.6327C61.4591 24.5994 61.2341 25.4327 60.7841 26.1327C60.3341 26.8161 59.7091 27.341 58.9091 27.7077C58.1257 28.0744 57.2091 28.2577 56.1591 28.2577H47.0591ZM52.6591 25.2577H55.7591C56.4757 25.2577 57.0507 25.0827 57.4841 24.7327C57.9341 24.3827 58.1591 23.8827 58.1591 23.2327V22.9827C58.1591 22.3327 57.9424 21.8327 57.5091 21.4827C57.0757 21.1327 56.4924 20.9577 55.7591 20.9577H52.6591V25.2577ZM52.6591 17.9577H55.7091C56.3924 17.9577 56.9507 17.7827 57.3841 17.4327C57.8341 17.0827 58.0591 16.5994 58.0591 15.9827V15.7327C58.0591 15.0994 57.8424 14.616 57.4091 14.2827C56.9757 13.9327 56.4091 13.7577 55.7091 13.7577H52.6591V17.9577Z" fill="#818181"/>
<path d="M68.9106 28.6077C67.6773 28.6077 66.569 28.3577 65.5856 27.8577C64.6023 27.3577 63.8273 26.6327 63.2606 25.6827C62.694 24.7327 62.4106 23.591 62.4106 22.2577V21.8577C62.4106 20.5244 62.694 19.3827 63.2606 18.4327C63.8273 17.4827 64.6023 16.7577 65.5856 16.2577C66.569 15.7577 67.6773 15.5077 68.9106 15.5077C70.144 15.5077 71.2523 15.7577 72.2356 16.2577C73.219 16.7577 73.994 17.4827 74.5606 18.4327C75.1273 19.3827 75.4106 20.5244 75.4106 21.8577V22.2577C75.4106 23.591 75.1273 24.7327 74.5606 25.6827C73.994 26.6327 73.219 27.3577 72.2356 27.8577C71.2523 28.3577 70.144 28.6077 68.9106 28.6077ZM68.9106 25.8077C69.8773 25.8077 70.6773 25.4994 71.3106 24.8827C71.944 24.2494 72.2606 23.3494 72.2606 22.1827V21.9327C72.2606 20.766 71.944 19.8744 71.3106 19.2577C70.694 18.6244 69.894 18.3077 68.9106 18.3077C67.944 18.3077 67.144 18.6244 66.5106 19.2577C65.8773 19.8744 65.5606 20.766 65.5606 21.9327V22.1827C65.5606 23.3494 65.8773 24.2494 66.5106 24.8827C67.144 25.4994 67.944 25.8077 68.9106 25.8077Z" fill="#818181"/>
<path d="M77.0683 28.2577V10.7577H80.2183V28.2577H77.0683Z" fill="#818181"/>
<path d="M87.2089 28.2577C86.3922 28.2577 85.7256 28.0077 85.2089 27.5077C84.7089 26.9911 84.4589 26.3077 84.4589 25.4577V18.4577H81.3589V15.8577H84.4589V12.0077H87.6089V15.8577H91.0089V18.4577H87.6089V24.9077C87.6089 25.4077 87.8422 25.6577 88.3089 25.6577H90.7089V28.2577H87.2089Z" fill="#818181"/>
<path d="M97.7602 28.6077C96.1436 28.6077 94.8186 28.2577 93.7852 27.5577C92.7519 26.8577 92.1269 25.8577 91.9102 24.5577L94.8102 23.8077C94.9269 24.391 95.1186 24.8494 95.3853 25.1827C95.6686 25.516 96.0102 25.7577 96.4102 25.9077C96.8269 26.0411 97.2769 26.1077 97.7602 26.1077C98.4936 26.1077 99.0353 25.9827 99.3853 25.7327C99.7353 25.466 99.9102 25.141 99.9102 24.7577C99.9102 24.3744 99.7436 24.0827 99.4103 23.8827C99.0769 23.666 98.5436 23.491 97.8102 23.3577L97.1102 23.2327C96.2436 23.066 95.4519 22.841 94.7352 22.5577C94.0186 22.2577 93.4436 21.8494 93.0103 21.3327C92.5769 20.816 92.3602 20.1494 92.3602 19.3327C92.3602 18.0994 92.8103 17.1577 93.7103 16.5077C94.6103 15.841 95.7936 15.5077 97.2603 15.5077C98.6436 15.5077 99.7936 15.816 100.71 16.4327C101.627 17.0494 102.227 17.8577 102.51 18.8577L99.5853 19.7577C99.4519 19.1244 99.1769 18.6744 98.7602 18.4077C98.3602 18.141 97.8603 18.0077 97.2603 18.0077C96.6603 18.0077 96.2019 18.116 95.8852 18.3327C95.5686 18.5327 95.4102 18.816 95.4102 19.1827C95.4102 19.5827 95.5769 19.8827 95.9102 20.0827C96.2436 20.266 96.6936 20.4077 97.2603 20.5077L97.9602 20.6327C98.8936 20.7994 99.7353 21.0244 100.485 21.3077C101.252 21.5744 101.852 21.966 102.285 22.4827C102.735 22.9827 102.96 23.6661 102.96 24.5327C102.96 25.8327 102.485 26.841 101.535 27.5577C100.602 28.2577 99.3436 28.6077 97.7602 28.6077Z" fill="#818181"/>
<path d="M104.471 28.2577V10.7577H107.621V17.3827H108.071C108.204 17.116 108.412 16.8494 108.696 16.5827C108.979 16.316 109.354 16.0994 109.821 15.9327C110.304 15.7494 110.912 15.6577 111.646 15.6577C112.612 15.6577 113.454 15.8827 114.171 16.3327C114.904 16.766 115.471 17.3744 115.871 18.1577C116.271 18.9244 116.471 19.8244 116.471 20.8577V28.2577H113.321V21.1077C113.321 20.1744 113.087 19.4744 112.621 19.0077C112.171 18.541 111.521 18.3077 110.671 18.3077C109.704 18.3077 108.954 18.6327 108.421 19.2827C107.887 19.916 107.621 20.8077 107.621 21.9577V28.2577H104.471Z" fill="#818181"/>
<path d="M118.626 28.2577V15.8577H121.776V28.2577H118.626ZM120.201 14.4077C119.634 14.4077 119.151 14.2244 118.751 13.8577C118.368 13.491 118.176 13.0077 118.176 12.4077C118.176 11.8077 118.368 11.3244 118.751 10.9577C119.151 10.591 119.634 10.4077 120.201 10.4077C120.784 10.4077 121.268 10.591 121.651 10.9577C122.034 11.3244 122.226 11.8077 122.226 12.4077C122.226 13.0077 122.034 13.491 121.651 13.8577C121.268 14.2244 120.784 14.4077 120.201 14.4077Z" fill="#818181"/>
<path d="M126.066 28.2577V18.4577H122.916V15.8577H126.066V13.5577C126.066 12.7077 126.316 12.0327 126.816 11.5327C127.333 11.016 128 10.7577 128.816 10.7577H132.066V13.3577H129.916C129.45 13.3577 129.216 13.6077 129.216 14.1077V15.8577H132.466V18.4577H129.216V28.2577H126.066Z" fill="#818181"/>
<path d="M138.161 28.2577C137.344 28.2577 136.678 28.0077 136.161 27.5077C135.661 26.9911 135.411 26.3077 135.411 25.4577V18.4577H132.311V15.8577H135.411V12.0077H138.561V15.8577H141.961V18.4577H138.561V24.9077C138.561 25.4077 138.794 25.6577 139.261 25.6577H141.661V28.2577H138.161Z" fill="#818181"/>
</svg>
