<svg width="170" height="40" viewBox="0 0 170 40" fill="none" xmlns="http://www.w3.org/2000/svg">
<path d="M20.7539 21.6667C20.3304 16.5337 16.0303 12.5 10.7881 12.5C5.26524 12.5 0.788086 16.9772 0.788086 22.5C0.788086 28.0228 5.26524 32.5 10.7881 32.5H25.7881V21.6667H20.7539Z" fill="#313131"/>
<ellipse cx="24.9546" cy="20" rx="12.5" ry="12.5" fill="#313131"/>
<path d="M44.8682 20.1668C44.8682 18.5023 45.1871 17.0479 45.8248 15.8034C46.4782 14.5434 47.4037 13.5712 48.6015 12.8868C49.8148 12.2023 51.2382 11.8601 52.8715 11.8601C54.1471 11.8601 55.2904 12.109 56.3015 12.6068C57.3126 13.1046 58.1293 13.8046 58.7515 14.7068C59.3737 15.609 59.7471 16.6512 59.8715 17.8334H56.3715C56.1693 16.9001 55.7415 16.169 55.0882 15.6401C54.4504 15.0957 53.6493 14.8234 52.6848 14.8234C51.3782 14.8234 50.3437 15.3134 49.5815 16.2934C48.8193 17.2734 48.4382 18.5646 48.4382 20.1668C48.4382 21.7534 48.8193 23.0446 49.5815 24.0401C50.3437 25.0201 51.3782 25.5101 52.6848 25.5101C53.6493 25.5101 54.4504 25.2457 55.0882 24.7168C55.7415 24.1723 56.1693 23.4334 56.3715 22.5001H59.8715C59.7471 23.6823 59.3737 24.7246 58.7515 25.6268C58.1293 26.529 57.3126 27.229 56.3015 27.7268C55.2904 28.2246 54.1471 28.4734 52.8715 28.4734C51.2382 28.4734 49.8148 28.1312 48.6015 27.4468C47.4037 26.7623 46.4782 25.7979 45.8248 24.5534C45.1871 23.2934 44.8682 21.8312 44.8682 20.1668Z" fill="#818181"/>
<path d="M60.715 12.0001H64.005V28.3334H60.715V12.0001Z" fill="#818181"/>
<path d="M71.221 28.4734C69.961 28.4734 68.8488 28.2246 67.8843 27.7268C66.9354 27.2134 66.1965 26.4901 65.6676 25.5568C65.1543 24.6234 64.8976 23.5501 64.8976 22.3368C64.8976 21.1234 65.1543 20.0501 65.6676 19.1168C66.1965 18.1834 66.9354 17.4679 67.8843 16.9701C68.8488 16.4568 69.961 16.2001 71.221 16.2001C72.481 16.2001 73.5854 16.4568 74.5343 16.9701C75.4988 17.4679 76.2376 18.1834 76.751 19.1168C77.2799 20.0501 77.5443 21.1234 77.5443 22.3368C77.5443 23.5657 77.2799 24.6468 76.751 25.5801C76.2376 26.4979 75.4988 27.2134 74.5343 27.7268C73.5854 28.2246 72.481 28.4734 71.221 28.4734ZM71.221 25.7901C72.1388 25.7901 72.8621 25.4712 73.391 24.8334C73.9354 24.1957 74.2076 23.3634 74.2076 22.3368C74.2076 21.3101 73.9354 20.4779 73.391 19.8401C72.8621 19.2023 72.1388 18.8834 71.221 18.8834C70.3188 18.8834 69.5954 19.2023 69.051 19.8401C68.5221 20.4779 68.2576 21.3101 68.2576 22.3368C68.2576 23.3634 68.5221 24.1957 69.051 24.8334C69.5954 25.4712 70.3188 25.7901 71.221 25.7901Z" fill="#818181"/>
<path d="M89.7152 16.3401V28.3334H86.7985L86.4952 26.8868C86.0752 27.3846 85.5852 27.7734 85.0252 28.0534C84.4652 28.3334 83.7807 28.4734 82.9719 28.4734C81.5719 28.4734 80.4285 28.0457 79.5419 27.1901C78.6552 26.319 78.2119 24.8723 78.2119 22.8501V16.3401H81.5019V22.4534C81.5019 23.5423 81.6885 24.3668 82.0619 24.9268C82.4507 25.4712 83.0419 25.7434 83.8352 25.7434C84.6596 25.7434 85.2974 25.4401 85.7485 24.8334C86.1996 24.2112 86.4252 23.3479 86.4252 22.2434V16.3401H89.7152Z" fill="#818181"/>
<path d="M103.063 12.0001V28.3334H100.193L99.8659 26.6768C98.9481 27.8746 97.7037 28.4734 96.1326 28.4734C95.0748 28.4734 94.1259 28.2246 93.2859 27.7268C92.4459 27.2134 91.7848 26.4901 91.3026 25.5568C90.8359 24.6234 90.6026 23.5423 90.6026 22.3134C90.6026 21.1001 90.8359 20.0346 91.3026 19.1168C91.7848 18.1834 92.4459 17.4679 93.2859 16.9701C94.1415 16.4568 95.0981 16.2001 96.1559 16.2001C97.7115 16.2001 98.917 16.7446 99.7726 17.8334V12.0001H103.063ZM96.9026 25.7901C97.7893 25.7901 98.497 25.479 99.0259 24.8568C99.5548 24.219 99.8192 23.3868 99.8192 22.3601C99.8192 21.3179 99.5548 20.4779 99.0259 19.8401C98.497 19.2023 97.7893 18.8834 96.9026 18.8834C96.0159 18.8834 95.3004 19.2023 94.7559 19.8401C94.227 20.4779 93.9626 21.3101 93.9626 22.3368C93.9626 23.3634 94.227 24.1957 94.7559 24.8334C95.3004 25.4712 96.0159 25.7901 96.9026 25.7901Z" fill="#818181"/>
<path d="M103.49 12.0001L107.106 11.9768L110.116 23.9234L113.313 12.0001H116.463L119.566 23.9234L122.646 12.0001H126.193L121.666 28.3334H117.63L114.806 17.4834L112.053 28.3334H108.016L103.49 12.0001Z" fill="#818181"/>
<path d="M137.171 25.5568V28.3334H135.491C133.982 28.3334 133.244 27.6801 133.275 26.3734C132.839 27.0579 132.302 27.579 131.665 27.9368C131.027 28.2946 130.257 28.4734 129.355 28.4734C128.017 28.4734 126.936 28.1701 126.111 27.5634C125.302 26.9412 124.898 26.0701 124.898 24.9501C124.898 23.6746 125.365 22.6946 126.298 22.0101C127.247 21.3101 128.616 20.9601 130.405 20.9601H132.785V20.3768C132.785 19.8323 132.582 19.4046 132.178 19.0934C131.774 18.7668 131.229 18.6034 130.545 18.6034C129.938 18.6034 129.44 18.7357 129.051 19.0001C128.662 19.2646 128.429 19.6223 128.351 20.0734H125.178C125.287 18.8446 125.831 17.8957 126.811 17.2268C127.791 16.5423 129.09 16.2001 130.708 16.2001C132.404 16.2001 133.71 16.5734 134.628 17.3201C135.561 18.0668 136.028 19.1479 136.028 20.5634V24.7868C136.028 25.0823 136.09 25.2846 136.215 25.3934C136.339 25.5023 136.534 25.5568 136.798 25.5568H137.171ZM132.785 23.1534H130.381C129.697 23.1534 129.16 23.2934 128.771 23.5734C128.398 23.8379 128.211 24.219 128.211 24.7168C128.211 25.1368 128.367 25.4712 128.678 25.7201C129.005 25.969 129.44 26.0934 129.985 26.0934C130.84 26.0934 131.517 25.8523 132.015 25.3701C132.512 24.8723 132.769 24.2112 132.785 23.3868V23.1534Z" fill="#818181"/>
<path d="M138.281 19.1168H136.297V16.3401H138.281V12.9801H141.571V16.3401H144.301V19.1168H141.571V24.3668C141.571 24.7868 141.656 25.0901 141.827 25.2768C142.014 25.4634 142.317 25.5568 142.737 25.5568H144.441V28.3334H141.711C139.424 28.3334 138.281 27.1901 138.281 24.9034V19.1168Z" fill="#818181"/>
<path d="M156.239 23.7834C156.021 25.2457 155.399 26.3968 154.372 27.2368C153.361 28.0612 152.047 28.4734 150.429 28.4734C149.184 28.4734 148.096 28.2246 147.162 27.7268C146.229 27.2134 145.506 26.4901 144.992 25.5568C144.494 24.6234 144.246 23.5501 144.246 22.3368C144.246 21.1079 144.494 20.0346 144.992 19.1168C145.506 18.1834 146.229 17.4679 147.162 16.9701C148.111 16.4568 149.208 16.2001 150.452 16.2001C152.054 16.2001 153.361 16.6123 154.372 17.4368C155.383 18.2457 156.006 19.3734 156.239 20.8201H152.832C152.692 20.229 152.412 19.7623 151.992 19.4201C151.572 19.0623 151.051 18.8834 150.429 18.8834C149.573 18.8834 148.889 19.2023 148.376 19.8401C147.862 20.4779 147.606 21.3101 147.606 22.3368C147.606 23.3634 147.862 24.1957 148.376 24.8334C148.889 25.4712 149.573 25.7901 150.429 25.7901C151.067 25.7901 151.596 25.6112 152.016 25.2534C152.451 24.8957 152.731 24.4057 152.856 23.7834H156.239Z" fill="#818181"/>
<path d="M163.923 16.2001C165.338 16.2001 166.497 16.6357 167.4 17.5068C168.317 18.3779 168.776 19.8168 168.776 21.8234V28.3334H165.486V21.9634C165.486 20.9679 165.284 20.2134 164.88 19.7001C164.475 19.1712 163.868 18.9068 163.06 18.9068C162.22 18.9068 161.558 19.1946 161.076 19.7701C160.61 20.3457 160.376 21.1468 160.376 22.1734V28.3334H157.086V12.0001H160.376V17.8101C161.263 16.7368 162.445 16.2001 163.923 16.2001Z" fill="#818181"/>
</svg>
