<svg width="166" height="40" viewBox="0 0 166 40" fill="none" xmlns="http://www.w3.org/2000/svg">
<path d="M31.1949 9.30261C30.8347 8.94242 30.4746 8.58224 30.1144 8.22206C29.0338 7.06947 27.8812 5.91688 26.4405 5.19652C24.7837 4.33208 22.9827 4.54818 21.1818 4.54818C18.4444 4.54818 11.6009 4.54818 7.56689 4.54818L10.3043 8.22206C15.2748 8.22206 23.0548 8.22206 26.6566 8.22206C28.1694 8.22206 29.466 8.5102 30.6907 9.30261C30.9068 9.37464 31.1229 9.37464 31.1949 9.30261Z" fill="#313131"/>
<path d="M34.2207 15.2098C33.8605 14.8496 33.5004 14.4895 33.1402 14.1293C32.0596 12.9767 30.907 11.8241 29.4663 11.1037C27.8095 10.2393 26.0085 10.4554 24.2076 10.4554C21.8304 10.4554 16.1395 10.4554 12.1055 10.4554L14.8429 14.1293C19.7414 14.1293 26.4408 14.1293 29.7545 14.1293C31.2672 14.1293 32.5639 14.4174 33.7885 15.2098C33.9326 15.2819 34.0767 15.2819 34.2207 15.2098Z" fill="#313131"/>
<path d="M37.6058 20.9725C37.2456 20.6123 36.8854 20.2522 36.5252 19.892C35.4447 18.7394 34.2921 17.5868 32.8513 16.8664C31.1945 16.002 29.3936 16.2181 27.5927 16.2181C25.3595 16.2181 20.461 16.2181 16.499 16.2181L19.2364 19.892C23.9908 19.892 30.0419 19.892 33.0675 19.892C34.5802 19.892 35.8769 20.1801 37.1015 20.9725C37.3176 21.0446 37.4617 21.1166 37.6058 20.9725Z" fill="#313131"/>
<path d="M7.27881 30.6973C7.63899 31.0575 7.99918 31.4177 8.35936 31.7779C9.43991 32.9305 10.5925 34.083 12.0332 34.8034C13.6901 35.6679 15.491 35.4517 17.2919 35.4517H30.9068L28.1694 31.7779C23.1989 31.7779 15.419 31.7779 11.8171 31.7779C10.3044 31.7779 9.00769 31.4897 7.78306 30.6973C7.56695 30.6253 7.42288 30.6253 7.27881 30.6973Z" fill="#313131"/>
<path d="M4.25293 24.7906C4.61311 25.1508 4.9733 25.511 5.33348 25.8712C6.41403 27.0237 7.56661 28.1763 9.00734 28.8967C10.6642 29.7611 12.4651 29.545 14.266 29.545H26.3682L23.6308 25.8712C18.7323 25.8712 12.0329 25.8712 8.7192 25.8712C7.20643 25.8712 5.90977 25.583 4.68514 24.7906C4.54107 24.7186 4.397 24.7186 4.25293 24.7906Z" fill="#313131"/>
<path d="M0.939453 18.9554C1.29964 19.3156 1.65982 19.6758 2.02 20.0359C3.10055 21.1885 4.25314 22.3411 5.69388 23.0615C7.35072 23.9259 9.15163 23.7098 10.9525 23.7098H22.0462L19.3088 20.0359C14.5544 20.0359 8.50331 20.0359 5.47777 20.0359C3.965 20.0359 2.66833 19.7478 1.44371 18.9554C1.2276 18.8834 1.08353 18.8834 0.939453 18.9554Z" fill="#313131"/>
<path d="M45.8823 11.6733V28.3333H49.5457V21.45H56.5223V18.6033H49.5457V14.7533H57.5957V11.6733H45.8823Z" fill="#818181"/>
<path d="M66.7837 21.0067H61.3937C61.4093 20.7733 61.4559 20.5089 61.5337 20.2133C61.627 19.9178 61.7748 19.6378 61.977 19.3733C62.1948 19.1089 62.4748 18.8911 62.817 18.72C63.1748 18.5333 63.6181 18.44 64.147 18.44C64.9559 18.44 65.5548 18.6578 65.9437 19.0933C66.3481 19.5289 66.6281 20.1667 66.7837 21.0067ZM61.3937 23.1067H70.097C70.1593 22.1733 70.0815 21.2789 69.8637 20.4233C69.6459 19.5678 69.2881 18.8056 68.7904 18.1367C68.3081 17.4678 67.6859 16.9389 66.9237 16.55C66.1615 16.1456 65.267 15.9433 64.2404 15.9433C63.3226 15.9433 62.4826 16.1067 61.7204 16.4333C60.9737 16.76 60.3281 17.2111 59.7837 17.7867C59.2393 18.3467 58.8193 19.0156 58.5237 19.7933C58.2281 20.5711 58.0804 21.4111 58.0804 22.3133C58.0804 23.2467 58.2204 24.1022 58.5004 24.88C58.7959 25.6578 59.2081 26.3267 59.737 26.8867C60.2659 27.4467 60.9115 27.8822 61.6737 28.1933C62.4359 28.4889 63.2915 28.6367 64.2404 28.6367C65.6093 28.6367 66.7759 28.3256 67.7404 27.7033C68.7048 27.0811 69.4204 26.0467 69.887 24.6H66.9704C66.8615 24.9733 66.5659 25.3311 66.0837 25.6733C65.6015 26 65.0259 26.1633 64.357 26.1633C63.4237 26.1633 62.7081 25.9222 62.2104 25.44C61.7126 24.9578 61.4404 24.18 61.3937 23.1067Z" fill="#818181"/>
<path d="M71.2221 19.98C71.2688 19.2022 71.4632 18.5567 71.8055 18.0433C72.1477 17.53 72.5833 17.1178 73.1121 16.8067C73.641 16.4956 74.2321 16.2778 74.8855 16.1533C75.5544 16.0133 76.2232 15.9433 76.8921 15.9433C77.4988 15.9433 78.1133 15.99 78.7355 16.0833C79.3577 16.1611 79.9255 16.3245 80.4388 16.5733C80.9521 16.8222 81.3721 17.1722 81.6988 17.6233C82.0255 18.0589 82.1888 18.6422 82.1888 19.3733V25.65C82.1888 26.1945 82.2199 26.7156 82.2821 27.2133C82.3444 27.7111 82.4533 28.0845 82.6088 28.3333H79.2488C79.1866 28.1467 79.1321 27.96 79.0855 27.7733C79.0544 27.5711 79.031 27.3689 79.0155 27.1667C78.4866 27.7111 77.8644 28.0922 77.1488 28.31C76.4333 28.5278 75.7021 28.6367 74.9555 28.6367C74.3799 28.6367 73.8433 28.5667 73.3455 28.4267C72.8477 28.2867 72.4121 28.0689 72.0388 27.7733C71.6655 27.4778 71.3699 27.1045 71.1521 26.6533C70.9499 26.2022 70.8488 25.6656 70.8488 25.0433C70.8488 24.3589 70.9655 23.7989 71.1988 23.3633C71.4477 22.9122 71.7588 22.5545 72.1321 22.29C72.521 22.0256 72.9566 21.8311 73.4388 21.7067C73.9366 21.5667 74.4344 21.4578 74.9321 21.38C75.4299 21.3022 75.9199 21.24 76.4021 21.1933C76.8844 21.1467 77.3121 21.0767 77.6855 20.9833C78.0588 20.89 78.3544 20.7578 78.5721 20.5867C78.7899 20.4 78.891 20.1356 78.8755 19.7933C78.8755 19.4356 78.8133 19.1556 78.6888 18.9533C78.5799 18.7356 78.4244 18.5722 78.2221 18.4633C78.0355 18.3389 77.8099 18.2611 77.5455 18.23C77.2966 18.1833 77.0244 18.16 76.7288 18.16C76.0755 18.16 75.5621 18.3 75.1888 18.58C74.8155 18.86 74.5977 19.3267 74.5355 19.98H71.2221ZM78.8755 22.43C78.7355 22.5545 78.5566 22.6556 78.3388 22.7333C78.1366 22.7956 77.911 22.85 77.6621 22.8967C77.4288 22.9433 77.1799 22.9822 76.9155 23.0133C76.651 23.0445 76.3866 23.0833 76.1221 23.13C75.8732 23.1767 75.6244 23.2389 75.3755 23.3167C75.1421 23.3945 74.9321 23.5033 74.7455 23.6433C74.5744 23.7678 74.4344 23.9311 74.3255 24.1333C74.2166 24.3356 74.1621 24.5922 74.1621 24.9033C74.1621 25.1989 74.2166 25.4478 74.3255 25.65C74.4344 25.8522 74.5821 26.0156 74.7688 26.14C74.9555 26.2489 75.1733 26.3267 75.4221 26.3733C75.671 26.42 75.9277 26.4433 76.1921 26.4433C76.8455 26.4433 77.351 26.3345 77.7088 26.1167C78.0666 25.8989 78.331 25.6422 78.5021 25.3467C78.6733 25.0356 78.7744 24.7245 78.8055 24.4133C78.8521 24.1022 78.8755 23.8533 78.8755 23.6667V22.43Z" fill="#818181"/>
<path d="M88.2606 16.27V12.6533H84.9472V16.27H82.9406V18.4867H84.9472V25.6033C84.9472 26.21 85.0484 26.7 85.2506 27.0733C85.4528 27.4467 85.725 27.7345 86.0672 27.9367C86.425 28.1389 86.8295 28.2711 87.2806 28.3333C87.7472 28.4111 88.2372 28.45 88.7506 28.45C89.0772 28.45 89.4117 28.4422 89.7539 28.4267C90.0961 28.4111 90.4072 28.38 90.6872 28.3333V25.7667C90.5317 25.7978 90.3684 25.8211 90.1972 25.8367C90.0261 25.8522 89.8472 25.86 89.6606 25.86C89.1006 25.86 88.7272 25.7667 88.5406 25.58C88.3539 25.3933 88.2606 25.02 88.2606 24.46V18.4867H90.6872V16.27H88.2606Z" fill="#818181"/>
<path d="M91.5637 11.6733V28.3333H94.877V22.01C94.877 20.7811 95.0793 19.9022 95.4837 19.3733C95.8881 18.8289 96.5415 18.5567 97.4437 18.5567C98.237 18.5567 98.7893 18.8056 99.1004 19.3033C99.4115 19.7856 99.567 20.5245 99.567 21.52V28.3333H102.88V20.9133C102.88 20.1667 102.81 19.49 102.67 18.8833C102.546 18.2611 102.32 17.74 101.994 17.32C101.667 16.8845 101.216 16.55 100.64 16.3167C100.08 16.0678 99.357 15.9433 98.4704 15.9433C97.8481 15.9433 97.2104 16.1067 96.557 16.4333C95.9037 16.7445 95.367 17.25 94.947 17.95H94.877V11.6733H91.5637Z" fill="#818181"/>
<path d="M112.815 21.0067H107.425C107.441 20.7733 107.487 20.5089 107.565 20.2133C107.658 19.9178 107.806 19.6378 108.008 19.3733C108.226 19.1089 108.506 18.8911 108.848 18.72C109.206 18.5333 109.65 18.44 110.178 18.44C110.987 18.44 111.586 18.6578 111.975 19.0933C112.38 19.5289 112.66 20.1667 112.815 21.0067ZM107.425 23.1067H116.128C116.191 22.1733 116.113 21.2789 115.895 20.4233C115.677 19.5678 115.32 18.8056 114.822 18.1367C114.34 17.4678 113.717 16.9389 112.955 16.55C112.193 16.1456 111.298 15.9433 110.272 15.9433C109.354 15.9433 108.514 16.1067 107.752 16.4333C107.005 16.76 106.36 17.2111 105.815 17.7867C105.271 18.3467 104.851 19.0156 104.555 19.7933C104.26 20.5711 104.112 21.4111 104.112 22.3133C104.112 23.2467 104.252 24.1022 104.532 24.88C104.827 25.6578 105.24 26.3267 105.768 26.8867C106.297 27.4467 106.943 27.8822 107.705 28.1933C108.467 28.4889 109.323 28.6367 110.272 28.6367C111.641 28.6367 112.807 28.3256 113.772 27.7033C114.736 27.0811 115.452 26.0467 115.918 24.6H113.002C112.893 24.9733 112.597 25.3311 112.115 25.6733C111.633 26 111.057 26.1633 110.388 26.1633C109.455 26.1633 108.74 25.9222 108.242 25.44C107.744 24.9578 107.472 24.18 107.425 23.1067Z" fill="#818181"/>
<path d="M117.394 16.27V28.3333H120.707V22.8967C120.707 22.3522 120.761 21.8467 120.87 21.38C120.979 20.9133 121.158 20.5089 121.407 20.1667C121.671 19.8089 122.014 19.5289 122.434 19.3267C122.854 19.1245 123.367 19.0233 123.974 19.0233C124.176 19.0233 124.386 19.0389 124.604 19.07C124.821 19.0856 125.008 19.1089 125.164 19.14V16.06C124.899 15.9822 124.658 15.9433 124.44 15.9433C124.02 15.9433 123.616 16.0056 123.227 16.13C122.838 16.2545 122.472 16.4333 122.13 16.6667C121.788 16.8845 121.485 17.1567 121.22 17.4833C120.956 17.7945 120.746 18.1367 120.59 18.51H120.544V16.27H117.394Z" fill="#818181"/>
<path d="M129.776 25.2533V14.7533H132.389C133.291 14.7533 134.046 14.8856 134.653 15.15C135.275 15.3989 135.773 15.7645 136.146 16.2467C136.519 16.7289 136.784 17.3122 136.939 17.9967C137.11 18.6656 137.196 19.42 137.196 20.26C137.196 21.1778 137.079 21.9556 136.846 22.5933C136.613 23.2311 136.301 23.7522 135.913 24.1567C135.524 24.5456 135.08 24.8256 134.583 24.9967C134.085 25.1678 133.571 25.2533 133.043 25.2533H129.776ZM126.113 11.6733V28.3333H133.299C134.575 28.3333 135.679 28.1233 136.613 27.7033C137.561 27.2678 138.347 26.6767 138.969 25.93C139.607 25.1833 140.081 24.2967 140.393 23.27C140.704 22.2433 140.859 21.1233 140.859 19.91C140.859 18.5256 140.665 17.32 140.276 16.2933C139.903 15.2667 139.374 14.4111 138.689 13.7267C138.02 13.0422 137.219 12.5289 136.286 12.1867C135.368 11.8445 134.373 11.6733 133.299 11.6733H126.113Z" fill="#818181"/>
<path d="M150.477 21.0067H145.087C145.103 20.7733 145.15 20.5089 145.227 20.2133C145.321 19.9178 145.469 19.6378 145.671 19.3733C145.889 19.1089 146.169 18.8911 146.511 18.72C146.869 18.5333 147.312 18.44 147.841 18.44C148.65 18.44 149.249 18.6578 149.637 19.0933C150.042 19.5289 150.322 20.1667 150.477 21.0067ZM145.087 23.1067H153.791C153.853 22.1733 153.775 21.2789 153.557 20.4233C153.34 19.5678 152.982 18.8056 152.484 18.1367C152.002 17.4678 151.38 16.9389 150.617 16.55C149.855 16.1456 148.961 15.9433 147.934 15.9433C147.016 15.9433 146.176 16.1067 145.414 16.4333C144.667 16.76 144.022 17.2111 143.477 17.7867C142.933 18.3467 142.513 19.0156 142.217 19.7933C141.922 20.5711 141.774 21.4111 141.774 22.3133C141.774 23.2467 141.914 24.1022 142.194 24.88C142.49 25.6578 142.902 26.3267 143.431 26.8867C143.96 27.4467 144.605 27.8822 145.367 28.1933C146.13 28.4889 146.985 28.6367 147.934 28.6367C149.303 28.6367 150.47 28.3256 151.434 27.7033C152.399 27.0811 153.114 26.0467 153.581 24.6H150.664C150.555 24.9733 150.26 25.3311 149.777 25.6733C149.295 26 148.72 26.1633 148.051 26.1633C147.117 26.1633 146.402 25.9222 145.904 25.44C145.406 24.9578 145.134 24.18 145.087 23.1067Z" fill="#818181"/>
<path d="M161.729 28.3333L165.813 16.27H162.523L159.979 24.5067H159.933L157.389 16.27H153.913L158.043 28.3333H161.729Z" fill="#818181"/>
</svg>
