<svg width="167" height="40" viewBox="0 0 167 40" fill="none" xmlns="http://www.w3.org/2000/svg">
<path d="M10.2543 3.73797L14.5447 19.75V2.14604C14.885 2.06665 15.2288 1.99674 15.576 1.93659V19.7516L20.4016 1.74219C20.7494 1.77367 21.0943 1.81486 21.4362 1.8655L16.5717 20.02L26.241 3.27222C26.5561 3.41393 26.8663 3.56428 27.1716 3.72296L17.4662 20.5332L31.3219 6.67752C31.5717 6.91375 31.8148 7.15694 32.0511 7.40676L18.1933 21.2645L35.0056 11.5579C35.1642 11.8632 35.3145 12.1735 35.4562 12.4885L18.7126 22.1555L36.8621 17.2923C36.9127 17.6342 36.9539 17.9792 36.9854 18.3269L18.9762 23.1525L36.7907 23.1525C36.7305 23.4997 36.6606 23.8435 36.5812 24.1837L18.9734 24.1837L34.9885 28.475C34.8241 28.7899 34.6507 29.0995 34.4688 29.4033L18.7111 25.1811L31.8724 32.7798C31.6232 33.036 31.3667 33.285 31.103 33.5263L18.1966 26.0748L27.9626 35.8409C27.6537 36.0214 27.3391 36.1931 27.019 36.3557L17.4663 26.803L23.7253 37.6439C23.3827 37.7408 23.0359 37.8279 22.6854 37.9051L16.5723 27.317L19.5197 38.3166C19.257 38.3278 18.9928 38.3334 18.7274 38.3334C18.6368 38.3334 18.5463 38.3328 18.456 38.3315L15.576 27.5831V38.0636C15.2288 38.0035 14.8849 37.9335 14.5447 37.8542V27.5848L12.0053 37.0619C11.6815 36.9342 11.3621 36.7975 11.0475 36.6522L13.5482 27.3193L8.85383 35.4503C8.5632 35.2641 8.27817 35.0701 7.99905 34.8683L12.6566 26.8013L6.13403 33.3238C5.88421 33.0876 5.64103 32.8444 5.40479 32.5946L11.9253 26.0741L3.86054 30.7303C3.65874 30.4512 3.46461 30.1662 3.27846 29.8756L11.4133 25.179L2.07571 27.6809C1.93037 27.3664 1.79369 27.047 1.66596 26.7231L11.1431 24.1837H0.87355C0.794142 23.8435 0.724207 23.4997 0.664038 23.1525L11.1403 23.1525L0.396041 20.2736C0.394711 20.1826 0.394043 20.0914 0.394043 20.0001C0.394043 19.7353 0.399655 19.4719 0.410767 19.2099L11.4118 22.1576L0.822061 16.0436C0.899169 15.6931 0.98631 15.3463 1.08317 15.0036L11.9285 21.2652L2.37183 11.7085C2.53441 11.3884 2.70612 11.0737 2.8866 10.7648L12.6567 20.5349L5.20218 7.62333C5.44356 7.3597 5.69255 7.10314 5.9488 6.85402L13.5489 20.0177L9.32595 4.25758C9.62982 4.07572 9.9394 3.9024 10.2543 3.73797Z" fill="#313131"/>
<path d="M48.6011 28.2577H52.5911V21.3277H60.5477V17.8044H52.5911V14.8411H61.0611V11.3411H48.6011V28.2577Z" fill="#818181"/>
<path d="M67.8425 18.3177C69.3592 18.3177 70.5725 19.2511 70.5725 21.9344C70.5725 24.5711 69.4058 25.5744 67.8425 25.5744C66.2792 25.5744 65.1125 24.5711 65.1125 21.9344C65.1125 19.2511 66.3258 18.3177 67.8425 18.3177ZM67.8425 15.3311C64.3658 15.3311 61.1925 17.3844 61.1925 21.9344C61.1925 26.4844 64.3658 28.5611 67.8425 28.5611C71.3192 28.5611 74.4925 26.4844 74.4925 21.9344C74.4925 17.3844 71.3192 15.3311 67.8425 15.3311Z" fill="#818181"/>
<path d="M81.8853 15.3311C78.082 15.3311 75.4687 17.9211 75.4687 21.9111C75.4687 25.9011 77.7553 28.5611 81.8853 28.5611C84.4053 28.5611 87.4153 27.3711 88.2787 23.6377H84.6853C84.4053 24.8277 83.542 25.5744 82.1187 25.5744C80.742 25.5744 79.3887 24.6644 79.3887 21.9344C79.3887 19.2511 80.742 18.3177 82.1187 18.3177C83.262 18.3177 84.172 18.8311 84.522 20.3011H88.1153C87.3687 16.5211 84.4987 15.3311 81.8853 15.3311Z" fill="#818181"/>
<path d="M97.3251 20.4177C92.4484 20.7911 88.9717 21.7944 88.9717 24.8744C88.9717 27.1611 90.9317 28.5611 93.3117 28.5611C95.1084 28.5611 96.6017 28.0711 97.5351 26.7411L97.5817 28.2577H101.362C101.175 27.4644 101.082 25.9944 101.082 24.6177V23.3111L101.128 20.5811C101.198 16.7777 99.1451 15.3077 95.5284 15.3077C91.7951 15.3077 89.5551 17.4077 89.3684 19.7644H92.9617C93.1251 18.5511 93.9651 17.9211 95.2017 17.9211C96.6017 17.9211 97.3251 18.4344 97.3251 19.9277V20.4177ZM97.4184 22.9844C97.4184 25.2944 96.2517 25.9477 94.7117 25.9477C93.7084 25.9477 92.9384 25.4111 92.9384 24.5944C92.9384 23.2411 94.7351 22.9377 97.4184 22.6811V22.9844Z" fill="#818181"/>
<path d="M106.954 11.3411H103.104V28.2577H106.954V11.3411Z" fill="#818181"/>
<path d="M109.409 11.3411V28.2577H113.399V22.4011H115.919C120.306 22.4011 123.596 21.3044 123.596 16.8477C123.596 12.4144 120.306 11.3411 115.919 11.3411H109.409ZM116.036 14.7011C117.902 14.7011 119.372 15.0744 119.372 16.8477C119.372 18.6211 117.902 19.0411 116.036 19.0411H113.399V14.7011H116.036Z" fill="#818181"/>
<path d="M130.359 18.3177C131.876 18.3177 133.089 19.2511 133.089 21.9344C133.089 24.5711 131.923 25.5744 130.359 25.5744C128.796 25.5744 127.629 24.5711 127.629 21.9344C127.629 19.2511 128.843 18.3177 130.359 18.3177ZM130.359 15.3311C126.883 15.3311 123.709 17.3844 123.709 21.9344C123.709 26.4844 126.883 28.5611 130.359 28.5611C133.836 28.5611 137.009 26.4844 137.009 21.9344C137.009 17.3844 133.836 15.3311 130.359 15.3311Z" fill="#818181"/>
<path d="M138.55 15.7044V28.2577H142.423V15.7044H138.55ZM138.55 11.3411V14.4211H142.4V11.3411H138.55Z" fill="#818181"/>
<path d="M148.564 15.7044H144.714V28.2577H148.564V21.8177C148.564 19.4844 149.241 18.4111 150.897 18.4111C152.764 18.4111 152.834 19.8811 152.834 21.6777V28.2577H156.684V20.7211C156.684 17.3144 155.681 15.4244 152.461 15.4244C150.477 15.4244 149.124 16.4277 148.564 17.3611V15.7044Z" fill="#818181"/>
<path d="M159.346 15.7044H157.363V18.4344H159.346V24.7344C159.346 27.6511 160.396 28.2577 163.5 28.2577H165.95V25.4811H164.853C163.57 25.4811 163.196 25.2477 163.196 24.0577V18.4344H165.95V15.7044H163.196V12.2744H159.346V15.7044Z" fill="#818181"/>
</svg>
