<svg width="136" height="40" viewBox="0 0 136 40" fill="none" xmlns="http://www.w3.org/2000/svg">
<path d="M13.4692 4.03784C19.5234 4.03784 24.432 8.94568 24.4321 14.9998C24.4321 21.054 19.5235 25.9626 13.4692 25.9626C7.41516 25.9625 2.50732 21.0539 2.50732 14.9998C2.5075 8.94579 7.41527 4.03802 13.4692 4.03784Z" stroke="#313131" stroke-width="4.74237"/>
<path d="M20.1357 14.0378C26.1899 14.0378 31.0985 18.9457 31.0986 24.9998C31.0986 31.054 26.19 35.9626 20.1357 35.9626C14.0817 35.9625 9.17383 31.0539 9.17383 24.9998C9.174 18.9458 14.0818 14.038 20.1357 14.0378Z" stroke="#313131" stroke-width="4.74237"/>
<path d="M43.4277 28.2576H47.2027V10.7576H43.4277V28.2576Z" fill="#818181"/>
<path d="M48.859 28.2576H52.359V21.3576C52.359 19.7326 53.434 18.5576 54.959 18.5576C56.409 18.5576 57.384 19.6576 57.384 21.1826V28.2576H60.884V20.4076C60.884 17.5076 59.034 15.4576 56.184 15.4576C54.459 15.4576 53.059 16.1826 52.359 17.4076V15.6576H48.859V28.2576Z" fill="#818181"/>
<path d="M63.4186 11.9326V15.6576H60.9936V18.5576H63.4186V23.6826C63.4186 26.6076 65.2936 28.2576 68.1936 28.2576H70.2686V25.3326H68.6686C67.5436 25.3326 66.8936 24.7576 66.8936 23.5326V18.5576H70.2686V15.6576H66.8936V11.9326H63.4186Z" fill="#818181"/>
<path d="M79.1004 23.9826C78.8254 25.0576 77.9004 25.6076 76.5004 25.6076C74.7504 25.6076 73.6254 24.5076 73.3754 22.7326H82.4254C82.4504 22.4576 82.4754 22.0826 82.4754 21.6076C82.4754 18.7326 80.7004 15.4576 76.2504 15.4576C71.9754 15.4576 70.0254 18.7326 70.0254 21.9326C70.0254 25.1076 72.2254 28.4576 76.5004 28.4576C79.6004 28.4576 82.0004 26.7076 82.5004 23.9826H79.1004ZM76.2504 18.0076C77.9254 18.0076 78.9004 19.1326 79.0004 20.5326H73.4254C73.7254 18.7826 74.6754 18.0076 76.2504 18.0076Z" fill="#818181"/>
<path d="M91.2211 18.5576V15.6576H89.7961C88.2711 15.6576 87.3211 16.1826 86.6461 17.7576V15.6576H83.1461V28.2576H86.6461V22.1326C86.6461 19.9826 87.4211 18.5576 89.1461 18.5576H91.2211Z" fill="#818181"/>
<path d="M91.7885 28.2576H95.2635V10.1826H91.7885V28.2576Z" fill="#818181"/>
<path d="M102.759 28.4576C106.634 28.4576 109.409 25.7076 109.409 21.9576C109.409 18.2076 106.634 15.4576 102.759 15.4576C98.8844 15.4576 96.1094 18.2076 96.1094 21.9576C96.1094 25.7076 98.8844 28.4576 102.759 28.4576ZM102.759 25.4576C100.884 25.4576 99.6094 24.0326 99.6094 21.9576C99.6094 19.8576 100.884 18.4326 102.759 18.4326C104.634 18.4326 105.909 19.8576 105.909 21.9576C105.909 24.0326 104.634 25.4576 102.759 25.4576Z" fill="#818181"/>
<path d="M115.91 28.4576C119.185 28.4576 121.785 26.3576 122.16 23.5576H118.61C118.36 24.6826 117.335 25.4576 116.06 25.4576C114.16 25.4576 113.035 24.0076 113.035 21.9576C113.035 19.9076 114.135 18.4326 116.01 18.4326C117.285 18.4326 118.36 19.2576 118.56 20.3826H122.06C121.835 17.4576 119.21 15.4576 115.91 15.4576C112.01 15.4576 109.41 18.2826 109.41 21.9576C109.41 25.6326 112.01 28.4576 115.91 28.4576Z" fill="#818181"/>
<path d="M131.352 28.2576H135.552L130.127 20.6076L135.152 15.6576H130.752L126.377 19.9576V10.1826H122.877V28.2576H126.377V24.3076L127.777 22.9326L131.352 28.2576Z" fill="#818181"/>
</svg>
