<svg width="140" height="40" viewBox="0 0 140 40" fill="none" xmlns="http://www.w3.org/2000/svg">
<path d="M19.0908 3.65332C28.2338 3.65332 35.6463 11.0651 35.6465 20.208C35.6465 29.3511 28.2339 36.7637 19.0908 36.7637C9.94793 36.7635 2.53613 29.3509 2.53613 20.208C2.53631 11.0652 9.94804 3.6535 19.0908 3.65332Z" stroke="#313131" stroke-width="3.55678"/>
<path d="M30.7972 8.50203C32.2877 9.99256 32.8315 12.5972 31.9524 16.0157C31.0849 19.3894 28.8888 23.217 25.4946 26.6113C22.1001 30.0057 18.2721 32.2023 14.8983 33.0698C11.4798 33.9489 8.87512 33.4051 7.38461 31.9146C5.89429 30.4241 5.35113 27.8198 6.23004 24.4016C7.09759 21.0277 9.29419 17.1997 12.6886 13.8053C16.083 10.411 19.9104 8.21499 23.2842 7.34746C26.7025 6.46845 29.3066 7.01167 30.7972 8.50203Z" stroke="#313131" stroke-width="3.55678"/>
<path d="M7.38484 8.5024C8.87537 7.01187 11.48 6.46808 14.8985 7.34713C18.2723 8.21469 22.0998 10.4108 25.4941 13.805C28.8885 17.1994 31.0851 21.0274 31.9527 24.4013C32.8317 27.8197 32.2879 30.4244 30.7974 31.915C29.3069 33.4053 26.7026 33.9484 23.2844 33.0695C19.9106 32.202 16.0826 30.0054 12.6881 26.611C9.29386 23.2166 7.0978 19.3892 6.23027 16.0154C5.35126 12.597 5.89449 9.99296 7.38484 8.5024Z" stroke="#313131" stroke-width="3.55678"/>
<path d="M53.1329 28.5333C57.0579 28.5333 59.7079 26.4833 59.7079 23.2083C59.7079 16.2833 50.5079 19.2333 50.5079 15.5833C50.5079 14.5583 51.4329 13.8583 52.9079 13.8583C54.5829 13.8583 55.6329 14.7583 55.7579 16.1333H59.3329C59.2329 12.8083 56.6829 10.6333 52.9079 10.6333C49.3579 10.6333 46.8579 12.6833 46.8579 15.5833C46.8579 22.4583 55.9329 19.8333 55.9329 23.2583C55.9329 24.5833 54.8079 25.2833 53.1329 25.2833C51.2829 25.2833 50.1079 24.1583 49.9579 22.3833H46.3579C46.5079 26.1083 49.1579 28.5333 53.1329 28.5333Z" fill="#818181"/>
<path d="M60.5581 33.4333H64.0331V27.2083C64.7081 28.0583 65.9331 28.5333 67.3581 28.5333C70.9831 28.5333 73.4331 25.9583 73.4331 22.0333C73.4331 18.1083 71.1831 15.5333 67.6581 15.5333C66.0331 15.5333 64.7831 16.1333 64.0331 17.1083V15.7333H60.5581V33.4333ZM66.9331 25.5333C65.0581 25.5333 63.8331 24.1333 63.8331 22.0333C63.8331 19.9083 65.0581 18.5083 66.9331 18.5083C68.7581 18.5083 70.0081 19.9083 70.0081 22.0333C70.0081 24.1333 68.7581 25.5333 66.9331 25.5333Z" fill="#818181"/>
<path d="M74.2739 28.3333H77.7489V21.4333C77.7489 19.8083 78.8239 18.6333 80.3489 18.6333C81.7989 18.6333 82.7989 19.7333 82.7989 21.2583V28.3333H86.2739V20.4833C86.2739 17.5833 84.4239 15.5333 81.5989 15.5333C79.8489 15.5333 78.4739 16.2583 77.7489 17.4833V10.2583H74.2739V28.3333Z" fill="#818181"/>
<path d="M95.995 24.0583C95.72 25.1333 94.795 25.6833 93.395 25.6833C91.645 25.6833 90.52 24.5833 90.27 22.8083H99.32C99.345 22.5333 99.37 22.1583 99.37 21.6833C99.37 18.8083 97.595 15.5333 93.145 15.5333C88.87 15.5333 86.92 18.8083 86.92 22.0083C86.92 25.1833 89.12 28.5333 93.395 28.5333C96.495 28.5333 98.895 26.7833 99.395 24.0583H95.995ZM93.145 18.0833C94.82 18.0833 95.795 19.2083 95.895 20.6083H90.32C90.62 18.8583 91.57 18.0833 93.145 18.0833Z" fill="#818181"/>
<path d="M108.484 18.6333V15.7333H106.691C105.166 15.7333 104.216 16.2583 103.541 17.8333V15.7333H100.041V28.3333H103.541V22.2083C103.541 20.0583 104.316 18.6333 106.041 18.6333H108.484Z" fill="#818181"/>
<path d="M120.484 15.7333H116.984V22.6333C116.984 24.2333 115.909 25.4333 114.384 25.4333C112.959 25.4333 111.959 24.3333 111.959 22.8083V15.7333H108.484V23.5833C108.484 26.4583 110.334 28.5333 113.159 28.5333C114.884 28.5333 116.284 27.7833 116.984 26.5833V28.3333H120.484V15.7333Z" fill="#818181"/>
<path d="M121.984 28.3333H125.459V10.2583H121.984V28.3333Z" fill="#818181"/>
<path d="M135.38 24.0583C135.105 25.1333 134.18 25.6833 132.78 25.6833C131.03 25.6833 129.905 24.5833 129.655 22.8083H138.705C138.73 22.5333 138.755 22.1583 138.755 21.6833C138.755 18.8083 136.98 15.5333 132.53 15.5333C128.255 15.5333 126.305 18.8083 126.305 22.0083C126.305 25.1833 128.505 28.5333 132.78 28.5333C135.88 28.5333 138.28 26.7833 138.78 24.0583H135.38ZM132.53 18.0833C134.205 18.0833 135.18 19.2083 135.28 20.6083H129.705C130.005 18.8583 130.955 18.0833 132.53 18.0833Z" fill="#818181"/>
</svg>
